ffmpeg started on 2025-06-07 at 18:34:23
Report written to "D:\Convert\FFMetrics\reports\ssim_report-6.txt"
Log level: 32
Command line:
ffmpeg -hide_banner -nostdin -i "G:\\\xc0\xed\xe8\xec\xe5\\\xce\xed\xe3\xee\xe8\xed\xe3\xe8\\!_36_\xce\xf1\xe5\xed\xfc_2024\\DreamCast\\\xdf \xf1\xf2\xe0\xed\xf3 \xe7\xeb\xee\xe4\xe5\xe9\xea\xee\xe9, \xea\xee\xf2\xee\xf0\xe0\xff \xe2\xee\xe9\xe4\xb8\xf2 \xe2 \xe8\xf1\xf2\xee\xf0\xe8\xfe\\[DC] Rekishi ni Nokoru Akujo ni Naruzo - 13_Telegram_HEVC.mkv" -i "G:\\\xc0\xed\xe8\xec\xe5\\\xce\xed\xe3\xee\xe8\xed\xe3\xe8\\!_36_\xce\xf1\xe5\xed\xfc_2024\\DreamCast\\\xdf \xf1\xf2\xe0\xed\xf3 \xe7\xeb\xee\xe4\xe5\xe9\xea\xee\xe9, \xea\xee\xf2\xee\xf0\xe0\xff \xe2\xee\xe9\xe4\xb8\xf2 \xe2 \xe8\xf1\xf2\xee\xf0\xe8\xfe\\[DC] Rekishi ni Nokoru Akujo ni Naruzo - 13_Telegram.mp4" -lavfi "[0:v]settb=AVTB,setpts=PTS-STARTPTS,format=pix_fmts=yuv420p10,fps=24000/1001,scale=1920:1080:flags=bicubic[main];[1:v]settb=AVTB,setpts=PTS-STARTPTS,format=pix_fmts=yuv420p,fps=24000/1001,scale=1920:1080:flags=bicubic[ref];[main][ref]ssim=eof_action=endall:stats_file='D\\:/Convert/FFMetrics/logs/ssim_logfile-6.txt'" -f null -
Input #0, matroska,webm, from 'G:\Аниме\Онгоинги\!_36_Осень_2024\DreamCast\Я стану злодейкой, которая войдёт в историю\[DC] Rekishi ni Nokoru Akujo ni Naruzo - 13_Telegram_HEVC.mkv':
  Metadata:
    COMPATIBLE_BRANDS: isomiso2avc1mp41
    MAJOR_BRAND     : isom
    MINOR_VERSION   : 512
    ENCODER         : Lavf61.7.100
  Duration: 00:23:46.77, start: -0.021000, bitrate: 692 kb/s
  Stream #0:0: Video: hevc (Main 10), yuv420p10le(tv, bt709, progressive), 1920x1080 [SAR 1:1 DAR 16:9], 23.98 fps, 23.98 tbr, 1k tbn (default)
      Metadata:
        HANDLER_NAME    : VideoHandler
        VENDOR_ID       : [0][0][0][0]
        ENCODER         : Lavc61.19.100 libx265
        BPS             : 493945
        DURATION        : 00:23:46.591708333
        NUMBER_OF_FRAMES: 34204
        NUMBER_OF_BYTES : 88082252
        _STATISTICS_WRITING_APP: mkvpropedit v66.0.0 ('Josie') 64-bit
        _STATISTICS_WRITING_DATE_UTC: 2025-06-06 11:43:53
        _STATISTICS_TAGS: BPS DURATION NUMBER_OF_FRAMES NUMBER_OF_BYTES
  Stream #0:1: Audio: aac (LC), 48000 Hz, stereo, fltp (default)
      Metadata:
        HANDLER_NAME    : SoundHandler
        VENDOR_ID       : [0][0][0][0]
        ENCODER         : Lavc61.19.100 aac
        BPS             : 194164
        DURATION        : 00:23:46.773000000
        NUMBER_OF_FRAMES: 66881
        NUMBER_OF_BYTES : 34628618
        _STATISTICS_WRITING_APP: mkvpropedit v66.0.0 ('Josie') 64-bit
        _STATISTICS_WRITING_DATE_UTC: 2025-06-06 11:43:53
        _STATISTICS_TAGS: BPS DURATION NUMBER_OF_FRAMES NUMBER_OF_BYTES
Input #1, mov,mp4,m4a,3gp,3g2,mj2, from 'G:\Аниме\Онгоинги\!_36_Осень_2024\DreamCast\Я стану злодейкой, которая войдёт в историю\[DC] Rekishi ni Nokoru Akujo ni Naruzo - 13_Telegram.mp4':
  Metadata:
    major_brand     : isom
    minor_version   : 512
    compatible_brands: isomiso2avc1mp41
    encoder         : Lavf61.1.100
  Duration: 00:23:46.72, start: 0.000000, bitrate: 2967 kb/s
  Stream #1:0[0x1](und): Video: h264 (High) (avc1 / 0x31637661), yuv420p(tv, bt709, progressive), 1920x1080 [SAR 1:1 DAR 16:9], 2819 kb/s, 23.98 fps, 23.98 tbr, 24k tbn (default)
      Metadata:
        handler_name    : VideoHandler
        vendor_id       : [0][0][0][0]
        encoder         : Lavc61.3.100 h264_qsv
  Stream #1:1[0x2](und): Audio: aac (HE-AACv2) (mp4a / 0x6134706D), 48000 Hz, stereo, fltp, 144 kb/s (default)
      Metadata:
        handler_name    : SoundHandler
        vendor_id       : [0][0][0][0]
Stream mapping:
  Stream #0:0 (hevc) -> settb:default
  Stream #1:0 (h264) -> settb:default
  ssim:default -> Stream #0:0 (wrapped_avframe)
  Stream #0:1 -> #0:1 (aac (native) -> pcm_s16le (native))
Output #0, null, to 'pipe:':
  Metadata:
    COMPATIBLE_BRANDS: isomiso2avc1mp41
    MAJOR_BRAND     : isom
    MINOR_VERSION   : 512
    encoder         : Lavf61.7.100
  Stream #0:0: Video: wrapped_avframe, yuv420p10le(tv, bt709, progressive), 1920x1080 [SAR 1:1 DAR 16:9], q=2-31, 200 kb/s, 23.98 fps, 23.98 tbn
      Metadata:
        encoder         : Lavc61.19.100 wrapped_avframe
  Stream #0:1: Audio: pcm_s16le, 48000 Hz, stereo, s16, 1536 kb/s (default)
      Metadata:
        HANDLER_NAME    : SoundHandler
        VENDOR_ID       : [0][0][0][0]
        _STATISTICS_TAGS: BPS DURATION NUMBER_OF_FRAMES NUMBER_OF_BYTES
        BPS             : 194164
        DURATION        : 00:23:46.773000000
        NUMBER_OF_FRAMES: 66881
        NUMBER_OF_BYTES : 34628618
        _STATISTICS_WRITING_APP: mkvpropedit v66.0.0 ('Josie') 64-bit
        _STATISTICS_WRITING_DATE_UTC: 2025-06-06 11:43:53
        encoder         : Lavc61.19.100 pcm_s16le
frame=  119 fps=0.0 q=-0.0 size=N/A time=00:00:04.96 bitrate=N/A speed=9.45x    frame=  344 fps=332 q=-0.0 size=N/A time=00:00:14.34 bitrate=N/A speed=13.9x    frame=  591 fps=380 q=-0.0 size=N/A time=00:00:24.64 bitrate=N/A speed=15.8x    frame=  786 fps=381 q=-0.0 size=N/A time=00:00:32.78 bitrate=N/A speed=15.9x    frame=  980 fps=379 q=-0.0 size=N/A time=00:00:40.87 bitrate=N/A speed=15.8x    frame= 1118 fps=362 q=-0.0 size=N/A time=00:00:46.62 bitrate=N/A speed=15.1x    frame= 1284 fps=355 q=-0.0 size=N/A time=00:00:53.55 bitrate=N/A speed=14.8x    frame= 1419 fps=344 q=-0.0 size=N/A time=00:00:59.18 bitrate=N/A speed=14.4x    frame= 1548 fps=333 q=-0.0 size=N/A time=00:01:04.56 bitrate=N/A speed=13.9x    frame= 1670 fps=324 q=-0.0 size=N/A time=00:01:09.65 bitrate=N/A speed=13.5x    frame= 1826 fps=322 q=-0.0 size=N/A time=00:01:16.15 bitrate=N/A speed=13.4x    frame= 1955 fps=316 q=-0.0 size=N/A time=00:01:21.53 bitrate=N/A speed=13.2x    frame= 2100 fps=313 q=-0.0 size=N/A time=00:01:27.58 bitrate=N/A speed=13.1x    frame= 2294 fps=318 q=-0.0 size=N/A time=00:01:35.67 bitrate=N/A speed=13.3x    frame= 2437 fps=315 q=-0.0 size=N/A time=00:01:41.64 bitrate=N/A speed=13.1x    frame= 2571 fps=311 q=-0.0 size=N/A time=00:01:47.23 bitrate=N/A speed=  13x    frame= 2713 fps=309 q=-0.0 size=N/A time=00:01:53.15 bitrate=N/A speed=12.9x    frame= 2890 fps=311 q=-0.0 size=N/A time=00:02:00.53 bitrate=N/A speed=  13x    frame= 3114 fps=318 q=-0.0 size=N/A time=00:02:09.87 bitrate=N/A speed=13.2x    frame= 3339 fps=324 q=-0.0 size=N/A time=00:02:19.26 bitrate=N/A speed=13.5x    frame= 3582 fps=331 q=-0.0 size=N/A time=00:02:29.39 bitrate=N/A speed=13.8x    frame= 3809 fps=336 q=-0.0 size=N/A time=00:02:38.86 bitrate=N/A speed=  14x    frame= 4048 fps=341 q=-0.0 size=N/A time=00:02:48.83 bitrate=N/A speed=14.2x    frame= 4287 fps=346 q=-0.0 size=N/A time=00:02:58.80 bitrate=N/A speed=14.4x    frame= 4508 fps=350 q=-0.0 size=N/A time=00:03:08.02 bitrate=N/A speed=14.6x    frame= 4715 fps=352 q=-0.0 size=N/A time=00:03:16.65 bitrate=N/A speed=14.7x    frame= 4944 fps=355 q=-0.0 size=N/A time=00:03:26.20 bitrate=N/A speed=14.8x    frame= 5149 fps=356 q=-0.0 size=N/A time=00:03:34.75 bitrate=N/A speed=14.9x    frame= 5333 fps=357 q=-0.0 size=N/A time=00:03:42.43 bitrate=N/A speed=14.9x    frame= 5552 fps=359 q=-0.0 size=N/A time=00:03:51.56 bitrate=N/A speed=  15x    frame= 5737 fps=359 q=-0.0 size=N/A time=00:03:59.28 bitrate=N/A speed=  15x    frame= 5982 fps=362 q=-0.0 size=N/A time=00:04:09.49 bitrate=N/A speed=15.1x    frame= 6204 fps=364 q=-0.0 size=N/A time=00:04:18.75 bitrate=N/A speed=15.2x    frame= 6388 fps=364 q=-0.0 size=N/A time=00:04:26.43 bitrate=N/A speed=15.2x    frame= 6570 fps=364 q=-0.0 size=N/A time=00:04:34.02 bitrate=N/A speed=15.2x    frame= 6750 fps=364 q=-0.0 size=N/A time=00:04:41.53 bitrate=N/A speed=15.2x    frame= 6969 fps=365 q=-0.0 size=N/A time=00:04:50.66 bitrate=N/A speed=15.2x    frame= 7138 fps=364 q=-0.0 size=N/A time=00:04:57.71 bitrate=N/A speed=15.2x    frame= 7359 fps=366 q=-0.0 size=N/A time=00:05:06.93 bitrate=N/A speed=15.3x    frame= 7604 fps=369 q=-0.0 size=N/A time=00:05:17.15 bitrate=N/A speed=15.4x    frame= 7866 fps=372 q=-0.0 size=N/A time=00:05:28.07 bitrate=N/A speed=15.5x    frame= 8088 fps=374 q=-0.0 size=N/A time=00:05:37.33 bitrate=N/A speed=15.6x    frame= 8256 fps=371 q=-0.0 size=N/A time=00:05:44.34 bitrate=N/A speed=15.5x    frame= 8404 fps=369 q=-0.0 size=N/A time=00:05:50.51 bitrate=N/A speed=15.4x    frame= 8560 fps=368 q=-0.0 size=N/A time=00:05:57.02 bitrate=N/A speed=15.3x    frame= 8766 fps=368 q=-0.0 size=N/A time=00:06:05.61 bitrate=N/A speed=15.4x    frame= 9002 fps=370 q=-0.0 size=N/A time=00:06:15.45 bitrate=N/A speed=15.4x    frame= 9242 fps=372 q=-0.0 size=N/A time=00:06:25.46 bitrate=N/A speed=15.5x    frame= 9487 fps=374 q=-0.0 size=N/A time=00:06:35.68 bitrate=N/A speed=15.6x    frame= 9730 fps=376 q=-0.0 size=N/A time=00:06:45.82 bitrate=N/A speed=15.7x    frame= 9935 fps=377 q=-0.0 size=N/A time=00:06:54.37 bitrate=N/A speed=15.7x    frame=10111 fps=376 q=-0.0 size=N/A time=00:07:01.71 bitrate=N/A speed=15.7x    frame=10306 fps=376 q=-0.0 size=N/A time=00:07:09.84 bitrate=N/A speed=15.7x    frame=10513 fps=376 q=-0.0 size=N/A time=00:07:18.47 bitrate=N/A speed=15.7x    frame=10745 fps=378 q=-0.0 size=N/A time=00:07:28.15 bitrate=N/A speed=15.8x    frame=10950 fps=378 q=-0.0 size=N/A time=00:07:36.70 bitrate=N/A speed=15.8x    frame=11163 fps=379 q=-0.0 size=N/A time=00:07:45.59 bitrate=N/A speed=15.8x    frame=11393 fps=380 q=-0.0 size=N/A time=00:07:55.18 bitrate=N/A speed=15.8x    frame=11616 fps=381 q=-0.0 size=N/A time=00:08:04.48 bitrate=N/A speed=15.9x    frame=11784 fps=380 q=-0.0 size=N/A time=00:08:11.49 bitrate=N/A speed=15.8x    frame=11962 fps=379 q=-0.0 size=N/A time=00:08:18.91 bitrate=N/A speed=15.8x    frame=12169 fps=380 q=-0.0 size=N/A time=00:08:27.54 bitrate=N/A speed=15.8x    frame=12397 fps=381 q=-0.0 size=N/A time=00:08:37.05 bitrate=N/A speed=15.9x    frame=12641 fps=382 q=-0.0 size=N/A time=00:08:47.23 bitrate=N/A speed=15.9x    frame=12890 fps=384 q=-0.0 size=N/A time=00:08:57.62 bitrate=N/A speed=  16x    frame=13098 fps=384 q=-0.0 size=N/A time=00:09:06.29 bitrate=N/A speed=  16x    frame=13332 fps=385 q=-0.0 size=N/A time=00:09:16.05 bitrate=N/A speed=16.1x    frame=13546 fps=385 q=-0.0 size=N/A time=00:09:24.98 bitrate=N/A speed=16.1x    frame=13781 fps=387 q=-0.0 size=N/A time=00:09:34.78 bitrate=N/A speed=16.1x    frame=14003 fps=387 q=-0.0 size=N/A time=00:09:44.04 bitrate=N/A speed=16.1x    frame=14244 fps=388 q=-0.0 size=N/A time=00:09:54.09 bitrate=N/A speed=16.2x    frame=14507 fps=390 q=-0.0 size=N/A time=00:10:05.06 bitrate=N/A speed=16.3x    frame=14766 fps=391 q=-0.0 size=N/A time=00:10:15.86 bitrate=N/A speed=16.3x    frame=14998 fps=392 q=-0.0 size=N/A time=00:10:25.54 bitrate=N/A speed=16.4x    frame=15241 fps=393 q=-0.0 size=N/A time=00:10:35.67 bitrate=N/A speed=16.4x    frame=15500 fps=395 q=-0.0 size=N/A time=00:10:46.47 bitrate=N/A speed=16.5x    frame=15744 fps=396 q=-0.0 size=N/A time=00:10:56.65 bitrate=N/A speed=16.5x    frame=15969 fps=396 q=-0.0 size=N/A time=00:11:06.04 bitrate=N/A speed=16.5x    frame=16190 fps=397 q=-0.0 size=N/A time=00:11:15.25 bitrate=N/A speed=16.5x    frame=16427 fps=398 q=-0.0 size=N/A time=00:11:25.14 bitrate=N/A speed=16.6x    frame=16680 fps=399 q=-0.0 size=N/A time=00:11:35.69 bitrate=N/A speed=16.6x    frame=16905 fps=399 q=-0.0 size=N/A time=00:11:45.12 bitrate=N/A speed=16.6x    frame=17163 fps=400 q=-0.0 size=N/A time=00:11:55.84 bitrate=N/A speed=16.7x    frame=17412 fps=401 q=-0.0 size=N/A time=00:12:06.22 bitrate=N/A speed=16.7x    frame=17663 fps=402 q=-0.0 size=N/A time=00:12:16.69 bitrate=N/A speed=16.8x    frame=17898 fps=403 q=-0.0 size=N/A time=00:12:26.49 bitrate=N/A speed=16.8x    frame=18152 fps=404 q=-0.0 size=N/A time=00:12:37.08 bitrate=N/A speed=16.8x    frame=18408 fps=405 q=-0.0 size=N/A time=00:12:47.76 bitrate=N/A speed=16.9x    frame=18663 fps=406 q=-0.0 size=N/A time=00:12:58.40 bitrate=N/A speed=16.9x    frame=18906 fps=407 q=-0.0 size=N/A time=00:13:08.53 bitrate=N/A speed=  17x    frame=19146 fps=407 q=-0.0 size=N/A time=00:13:18.54 bitrate=N/A speed=  17x    frame=19369 fps=408 q=-0.0 size=N/A time=00:13:27.84 bitrate=N/A speed=  17x    frame=19590 fps=408 q=-0.0 size=N/A time=00:13:37.06 bitrate=N/A speed=  17x    frame=19817 fps=408 q=-0.0 size=N/A time=00:13:46.53 bitrate=N/A speed=  17x    frame=20067 fps=409 q=-0.0 size=N/A time=00:13:56.96 bitrate=N/A speed=17.1x    frame=20302 fps=410 q=-0.0 size=N/A time=00:14:06.76 bitrate=N/A speed=17.1x    frame=20561 fps=410 q=-0.0 size=N/A time=00:14:17.56 bitrate=N/A speed=17.1x    frame=20795 fps=411 q=-0.0 size=N/A time=00:14:27.32 bitrate=N/A speed=17.1x    frame=20967 fps=410 q=-0.0 size=N/A time=00:14:34.49 bitrate=N/A speed=17.1x    frame=21201 fps=411 q=-0.0 size=N/A time=00:14:44.25 bitrate=N/A speed=17.1x    frame=21444 fps=411 q=-0.0 size=N/A time=00:14:54.39 bitrate=N/A speed=17.1x    frame=21683 fps=412 q=-0.0 size=N/A time=00:15:04.36 bitrate=N/A speed=17.2x    frame=21943 fps=413 q=-0.0 size=N/A time=00:15:15.20 bitrate=N/A speed=17.2x    frame=22192 fps=413 q=-0.0 size=N/A time=00:15:25.59 bitrate=N/A speed=17.2x    frame=22450 fps=414 q=-0.0 size=N/A time=00:15:36.35 bitrate=N/A speed=17.3x    frame=22687 fps=414 q=-0.0 size=N/A time=00:15:46.23 bitrate=N/A speed=17.3x    frame=22905 fps=415 q=-0.0 size=N/A time=00:15:55.32 bitrate=N/A speed=17.3x    frame=23154 fps=415 q=-0.0 size=N/A time=00:16:05.71 bitrate=N/A speed=17.3x    frame=23373 fps=415 q=-0.0 size=N/A time=00:16:14.84 bitrate=N/A speed=17.3x    frame=23632 fps=416 q=-0.0 size=N/A time=00:16:25.65 bitrate=N/A speed=17.4x    frame=23881 fps=417 q=-0.0 size=N/A time=00:16:36.03 bitrate=N/A speed=17.4x    frame=24124 fps=417 q=-0.0 size=N/A time=00:16:46.17 bitrate=N/A speed=17.4x    frame=24368 fps=418 q=-0.0 size=N/A time=00:16:56.34 bitrate=N/A speed=17.4x    frame=24607 fps=418 q=-0.0 size=N/A time=00:17:06.31 bitrate=N/A speed=17.4x    frame=24851 fps=419 q=-0.0 size=N/A time=00:17:16.49 bitrate=N/A speed=17.5x    frame=25107 fps=419 q=-0.0 size=N/A time=00:17:27.17 bitrate=N/A speed=17.5x    frame=25334 fps=419 q=-0.0 size=N/A time=00:17:36.63 bitrate=N/A speed=17.5x    frame=25536 fps=419 q=-0.0 size=N/A time=00:17:45.06 bitrate=N/A speed=17.5x    frame=25796 fps=420 q=-0.0 size=N/A time=00:17:55.90 bitrate=N/A speed=17.5x    frame=26071 fps=421 q=-0.0 size=N/A time=00:18:07.37 bitrate=N/A speed=17.6x    frame=26335 fps=422 q=-0.0 size=N/A time=00:18:18.38 bitrate=N/A speed=17.6x    frame=26563 fps=422 q=-0.0 size=N/A time=00:18:27.89 bitrate=N/A speed=17.6x    frame=26798 fps=422 q=-0.0 size=N/A time=00:18:37.69 bitrate=N/A speed=17.6x    frame=27046 fps=422 q=-0.0 size=N/A time=00:18:48.04 bitrate=N/A speed=17.6x    frame=27298 fps=423 q=-0.0 size=N/A time=00:18:58.55 bitrate=N/A speed=17.6x    frame=27559 fps=424 q=-0.0 size=N/A time=00:19:09.43 bitrate=N/A speed=17.7x    frame=27802 fps=424 q=-0.0 size=N/A time=00:19:19.57 bitrate=N/A speed=17.7x    frame=28077 fps=425 q=-0.0 size=N/A time=00:19:31.04 bitrate=N/A speed=17.7x    frame=28340 fps=426 q=-0.0 size=N/A time=00:19:42.01 bitrate=N/A speed=17.7x    frame=28572 fps=426 q=-0.0 size=N/A time=00:19:51.69 bitrate=N/A speed=17.8x    frame=28843 fps=427 q=-0.0 size=N/A time=00:20:02.99 bitrate=N/A speed=17.8x    frame=29097 fps=427 q=-0.0 size=N/A time=00:20:13.58 bitrate=N/A speed=17.8x    frame=29355 fps=428 q=-0.0 size=N/A time=00:20:24.34 bitrate=N/A speed=17.8x    frame=29597 fps=428 q=-0.0 size=N/A time=00:20:34.48 bitrate=N/A speed=17.8x    frame=29857 fps=428 q=-0.0 size=N/A time=00:20:45.28 bitrate=N/A speed=17.9x    frame=30087 fps=429 q=-0.0 size=N/A time=00:20:54.87 bitrate=N/A speed=17.9x    frame=30316 fps=429 q=-0.0 size=N/A time=00:21:04.42 bitrate=N/A speed=17.9x    frame=30548 fps=429 q=-0.0 size=N/A time=00:21:14.10 bitrate=N/A speed=17.9x    frame=30792 fps=429 q=-0.0 size=N/A time=00:21:24.28 bitrate=N/A speed=17.9x    frame=31023 fps=429 q=-0.0 size=N/A time=00:21:33.91 bitrate=N/A speed=17.9x    frame=31242 fps=429 q=-0.0 size=N/A time=00:21:43.05 bitrate=N/A speed=17.9x    frame=31463 fps=429 q=-0.0 size=N/A time=00:21:52.26 bitrate=N/A speed=17.9x    frame=31698 fps=429 q=-0.0 size=N/A time=00:22:02.07 bitrate=N/A speed=17.9x    frame=31949 fps=430 q=-0.0 size=N/A time=00:22:12.53 bitrate=N/A speed=17.9x    frame=32216 fps=430 q=-0.0 size=N/A time=00:22:23.67 bitrate=N/A speed=17.9x    frame=32457 fps=431 q=-0.0 size=N/A time=00:22:33.72 bitrate=N/A speed=  18x    frame=32654 fps=430 q=-0.0 size=N/A time=00:22:41.94 bitrate=N/A speed=17.9x    frame=32910 fps=431 q=-0.0 size=N/A time=00:22:52.62 bitrate=N/A speed=  18x    frame=33150 fps=431 q=-0.0 size=N/A time=00:23:02.63 bitrate=N/A speed=  18x    frame=33365 fps=431 q=-0.0 size=N/A time=00:23:11.59 bitrate=N/A speed=  18x    frame=33560 fps=430 q=-0.0 size=N/A time=00:23:19.73 bitrate=N/A speed=  18x    frame=33782 fps=430 q=-0.0 size=N/A time=00:23:28.99 bitrate=N/A speed=  18x    frame=34017 fps=431 q=-0.0 size=N/A time=00:23:38.79 bitrate=N/A speed=  18x    [Parsed_ssim_10 @ 00000286d7824980] SSIM Y:0.995661 (23.625729) U:0.994972 (22.985831) V:0.994945 (22.962747) All:0.995427 (23.397546)
[out#0/null @ 00000286ca766540] video:14697KiB audio:267524KiB subtitle:0KiB other streams:0KiB global headers:0KiB muxing overhead: unknown
frame=34204 fps=431 q=-0.0 Lsize=N/A time=00:23:46.59 bitrate=N/A speed=  18x    
